<?xml version="1.0" standalone="no"?>
<!DOCTYPE svg PUBLIC "-//W3C//DTD SVG 20010904//EN"
 "http://www.w3.org/TR/2001/REC-SVG-20010904/DTD/svg10.dtd">
<svg version="1.0" xmlns="http://www.w3.org/2000/svg"
 width="1024.000000pt" height="1024.000000pt" viewBox="0 0 1024.000000 1024.000000"
 preserveAspectRatio="xMidYMid meet">

<g transform="translate(0.000000,1024.000000) scale(0.100000,-0.100000)"
fill="#000000" stroke="none">
<path d="M0 5120 l0 -5120 5120 0 5120 0 0 5120 0 5120 -5120 0 -5120 0 0
-5120z m4836 2935 c23 -14 52 -40 63 -59 l21 -34 0 -2787 c0 -1915 -3 -2799
-10 -2826 -14 -51 -65 -101 -119 -118 -53 -15 -132 0 -169 34 -13 12 -41 33
-62 46 -22 13 -40 29 -40 36 0 7 -8 17 -17 22 -10 5 -90 82 -178 170 -88 88
-166 161 -172 161 -7 0 -13 4 -13 9 0 13 -45 61 -56 61 -5 0 -20 15 -34 32
-14 18 -37 44 -51 59 -14 14 -35 42 -47 61 l-22 35 0 894 c-1 785 -3 892 -15
875 -8 -11 -15 -15 -15 -9 0 7 6 18 13 25 16 17 20 44 9 64 -6 11 -21 -31 -51
-145 -23 -89 -39 -165 -36 -170 3 -5 1 -11 -4 -13 -5 -1 -35 -100 -67 -218
-61 -228 -78 -280 -94 -280 -6 0 -10 -7 -10 -15 0 -8 -7 -15 -15 -15 -8 0 -15
-4 -15 -8 0 -19 -85 -47 -139 -46 -64 0 -117 22 -160 66 -32 33 -40 59 -131
413 -33 132 -63 245 -64 250 -2 6 -5 -184 -5 -422 -1 -238 -4 -438 -7 -445
-12 -26 -74 -69 -102 -70 -37 -1 -88 24 -137 67 -44 38 -398 390 -455 452 -39
41 -85 137 -76 159 3 7 1 16 -4 19 -6 4 -10 239 -10 618 l0 612 29 80 c19 52
42 95 67 123 79 88 384 392 394 392 5 0 10 7 10 15 0 8 3 15 8 15 4 0 36 28
72 61 111 105 126 113 188 110 33 -1 87 -63 105 -119 16 -48 38 -132 127 -477
29 -110 58 -220 64 -244 l12 -43 13 50 c7 28 10 56 6 62 -3 5 -2 10 3 10 5 0
21 46 36 103 14 56 51 194 81 307 30 113 73 275 96 360 23 85 61 229 86 320
24 91 60 226 79 300 20 74 39 149 44 165 5 17 17 58 27 92 10 35 24 68 31 75
6 6 12 18 12 25 0 7 5 13 10 13 6 0 10 4 10 9 0 12 53 62 281 271 51 47 110
102 131 123 20 20 41 37 46 37 5 0 27 19 49 43 74 78 143 132 206 159 79 34
119 35 173 3z m1404 -1123 c0 -34 16 -52 48 -52 15 0 39 -16 64 -42 29 -30 42
-38 48 -29 5 9 10 10 14 2 4 -6 2 -11 -3 -11 -6 0 -11 -7 -11 -15 0 -11 11
-15 39 -15 27 0 45 -7 62 -24 13 -12 43 -35 66 -49 23 -15 44 -35 48 -47 3
-11 19 -27 35 -35 16 -8 34 -24 40 -35 6 -11 18 -20 26 -20 9 0 28 -12 44 -27
15 -16 42 -39 60 -53 18 -14 183 -175 367 -357 229 -228 333 -339 333 -354 0
-11 14 -34 32 -51 24 -22 29 -32 19 -38 -11 -6 -9 -12 8 -26 17 -15 21 -30 21
-76 0 -32 4 -58 10 -58 6 0 10 -18 10 -40 0 -29 4 -40 15 -40 11 0 15 -11 15
-40 0 -29 4 -40 15 -40 13 0 15 -20 15 -120 0 -100 -2 -120 -15 -120 -11 0
-15 -11 -15 -39 0 -28 -7 -45 -25 -62 -25 -24 -34 -59 -14 -59 5 0 7 -5 3 -11
-4 -8 -9 -7 -14 2 -6 9 -17 4 -40 -21 -28 -30 -33 -32 -41 -17 -6 9 -15 17
-20 17 -6 0 -8 -4 -5 -9 3 -5 -6 -11 -20 -14 -16 -3 -28 1 -31 9 -3 8 -18 14
-34 14 -21 0 -27 4 -23 15 4 10 0 15 -12 15 -25 0 -50 -17 -41 -27 5 -4 12 -1
16 6 6 9 11 10 15 2 4 -6 2 -11 -3 -11 -6 0 -11 -5 -11 -11 0 -5 4 -7 10 -4 5
3 7 0 4 -9 -5 -12 -13 -8 -40 16 -38 35 -41 40 -17 31 15 -6 14 -4 -1 14 -54
62 -67 73 -85 73 -11 0 -50 32 -92 75 -40 41 -78 75 -85 75 -19 0 -37 37 -21
43 7 3 4 6 -6 6 -10 1 -87 68 -170 149 -84 81 -208 202 -277 267 -69 66 -176
171 -239 232 -62 62 -117 110 -122 107 -5 -3 -9 2 -9 10 0 9 -4 16 -10 16 -5
0 -10 5 -10 12 0 6 14 -1 31 -18 26 -25 30 -26 27 -9 -2 14 2 20 15 19 9 -1
17 2 17 7 0 13 -37 48 -44 42 -3 -3 -4 4 -3 16 1 11 4 21 7 21 13 0 3 44 -11
48 -19 7 -29 23 -29 50 0 12 -5 21 -12 20 -10 -2 -14 21 -16 85 -2 68 -6 87
-17 87 -11 0 -15 12 -15 40 0 22 -4 40 -10 40 -5 0 -10 18 -10 40 0 29 -4 40
-15 40 -13 0 -15 29 -15 200 l0 200 80 0 80 0 0 -28z m-151 -806 c-3 -3 -11 5
-18 17 -13 21 -12 21 5 5 10 -10 16 -20 13 -22z m66 -56 c26 -28 15 -31 -14
-3 -13 13 -20 23 -14 23 5 0 18 -9 28 -20z m61 -14 c8 -8 14 -20 14 -27 0 -7
-9 -4 -20 9 -29 31 -24 48 6 18z m-21 -224 c-6 -6 -35 18 -35 29 0 5 9 1 20
-8 11 -9 17 -19 15 -21z m39 -34 c12 -13 42 -41 66 -62 25 -22 103 -94 174
-160 70 -67 133 -124 140 -128 6 -3 93 -87 194 -185 l182 -178 -2 -425 c-1
-236 -4 -385 -8 -335 -4 50 -5 142 -4 205 2 80 0 101 -5 70 -7 -41 -8 -37 -11
40 l-3 85 -15 -122 c-10 -82 -20 -123 -28 -123 -8 0 -14 -27 -19 -80 -6 -69
-10 -80 -26 -80 -15 0 -19 -7 -19 -40 0 -22 -4 -40 -10 -40 -5 0 -10 -18 -10
-40 0 -29 -4 -40 -15 -40 -11 0 -15 -11 -15 -35 0 -28 -8 -44 -36 -72 -25 -25
-38 -32 -44 -24 -5 9 -11 8 -24 -5 -13 -13 -14 -19 -5 -24 8 -6 1 -19 -24 -44
-28 -28 -44 -36 -72 -36 -24 0 -35 -4 -35 -15 0 -12 -16 -15 -80 -15 -64 0
-80 3 -80 15 0 11 -11 15 -40 15 l-40 0 0 40 c0 29 -4 40 -15 40 -11 0 -15 11
-15 40 0 22 -4 40 -10 40 -5 0 -10 18 -10 40 0 29 -4 40 -15 40 -12 0 -15 16
-15 80 0 64 -3 80 -15 80 -11 0 -15 11 -15 40 0 22 -4 40 -10 40 -6 0 -10 33
-10 80 0 64 -3 80 -15 80 -13 0 -15 24 -15 160 0 100 4 160 10 160 6 0 10 18
10 40 0 36 -2 40 -25 40 l-25 0 0 160 c0 88 4 160 9 160 5 0 12 36 16 80 4 44
11 80 15 80 4 0 11 36 15 80 4 44 11 80 16 80 5 0 9 18 9 40 0 36 2 40 25 40
22 0 24 2 13 20 -14 22 -3 39 14 22 16 -16 29 -15 22 2 -3 8 -15 17 -27 20
-12 3 -18 8 -14 12 4 4 -5 20 -20 36 -15 15 -23 28 -19 28 5 0 18 -10 30 -22z
m-188 -7 c0 -11 -4 -17 -8 -15 -4 3 -8 12 -8 20 0 8 4 14 8 14 4 0 8 -9 8 -19z
m149 -1 c10 -11 14 -20 9 -20 -5 0 -15 9 -22 20 -7 11 -11 20 -9 20 2 0 12 -9
22 -20z m-2777 -205 c0 -16 -2 -15 -8 5 -11 34 -11 60 0 35 5 -11 8 -29 8 -40z
m2632 -19 c0 -3 -4 -8 -10 -11 -5 -3 -10 -1 -10 4 0 6 5 11 10 11 6 0 10 -2
10 -4z m7 -68 c-3 -8 -6 -5 -6 6 -1 11 2 17 5 13 3 -3 4 -12 1 -19z m0 -215
c-2 -16 -4 -3 -4 27 0 30 2 43 4 28 2 -16 2 -40 0 -55z m-3730 25 c-3 -8 -6
-5 -6 6 -1 11 2 17 5 13 3 -3 4 -12 1 -19z m3746 -95 c-7 -2 -19 -2 -25 0 -7
3 -2 5 12 5 14 0 19 -2 13 -5z m-6 -79 c-3 -3 -12 -4 -19 -1 -8 3 -5 6 6 6 11
1 17 -2 13 -5z m1191 -129 c15 -14 22 -25 16 -25 -6 0 -21 11 -34 25 -13 14
-20 25 -16 25 4 0 19 -11 34 -25z m157 -155 c16 -16 27 -32 24 -34 -2 -2 -19
11 -37 30 -19 19 -30 34 -25 34 5 0 22 -13 38 -30z m20 19 c11 -16 1 -19 -13
-3 -7 8 -8 14 -3 14 5 0 13 -5 16 -11z m-1375 -111 c-4 -49 -5 -50 -8 -14 -3
34 2 66 10 66 2 0 1 -24 -2 -52z m1438 23 c24 -7 24 -8 7 -13 -12 -3 -28 3
-40 15 -11 11 -14 17 -7 12 8 -4 26 -10 40 -14z m-1433 -211 c3 -6 -1 -7 -9
-4 -18 7 -21 14 -7 14 6 0 13 -4 16 -10z m-2918 -52 c-3 -7 -5 -2 -5 12 0 14
2 19 5 13 2 -7 2 -19 0 -25z m3593 -522 c0 -3 -4 -8 -10 -11 -5 -3 -10 -1 -10
4 0 6 5 11 10 11 6 0 10 -2 10 -4z"/>
<path d="M6225 6230 c3 -5 8 -10 11 -10 2 0 4 5 4 10 0 6 -5 10 -11 10 -5 0
-7 -4 -4 -10z"/>
<path d="M6260 5993 c0 -5 11 -20 25 -33 14 -13 25 -19 25 -13 0 5 -11 20 -25
33 -14 13 -25 19 -25 13z"/>
<path d="M6355 5890 c3 -5 11 -10 16 -10 6 0 7 5 4 10 -3 6 -11 10 -16 10 -6
0 -7 -4 -4 -10z"/>
<path d="M7090 5180 c0 -5 5 -10 10 -10 6 0 10 5 10 10 0 6 -4 10 -10 10 -5 0
-10 -4 -10 -10z"/>
<path d="M7170 5106 c0 -4 7 -14 15 -22 8 -9 15 -11 15 -6 0 5 -7 15 -15 22
-8 7 -15 9 -15 6z"/>
</g>
</svg>
